<svg width="21" height="19" viewBox="0 0 21 19" fill="none" xmlns="http://www.w3.org/2000/svg">
    <path
        d="M18.5698 5.29596V16.4009C18.5698 16.9116 18.5636 17.4243 18.5698 17.9349V17.9554L19.5952 16.93H2.14714C1.9113 16.93 1.67546 16.928 1.43962 16.93H1.40886L2.43425 17.9554V6.85045C2.43425 6.3398 2.44041 5.82711 2.43425 5.31646V5.29596L1.40886 6.32135H18.8569C19.0927 6.32135 19.3286 6.3234 19.5644 6.32135H19.5952C19.8577 6.32135 20.1345 6.2065 20.3212 6.02193C20.4996 5.84351 20.6329 5.5523 20.6206 5.29596C20.6083 5.0314 20.5221 4.7566 20.3212 4.56998C20.1202 4.38541 19.8741 4.27056 19.5952 4.27056H2.14714C1.9113 4.27056 1.67546 4.26851 1.43962 4.27056H1.40886C0.855151 4.27056 0.383472 4.74019 0.383472 5.29596V16.4009C0.383472 16.9116 0.377319 17.4243 0.383472 17.9349V17.9554C0.383472 18.5091 0.853101 18.9808 1.40886 18.9808H18.8569C19.0927 18.9808 19.3286 18.9829 19.5644 18.9808H19.5952C20.1489 18.9808 20.6206 18.5112 20.6206 17.9554V6.85045C20.6206 6.3398 20.6267 5.82711 20.6206 5.31646V5.29596C20.6206 5.03346 20.5057 4.7566 20.3212 4.56998C20.1427 4.39156 19.8515 4.25826 19.5952 4.27056C19.3306 4.28287 19.0558 4.369 18.8692 4.56998C18.6867 4.77301 18.5698 5.0191 18.5698 5.29596Z"
        fill="white" />
    <path
        d="M19.5953 4.27258H2.14723C1.91139 4.27258 1.67555 4.27053 1.43971 4.27258H1.40895C1.65094 4.85705 1.89293 5.43947 2.13492 6.02395L3.48844 4.5843C4.20826 3.81936 4.92809 3.05647 5.64586 2.29152C5.80992 2.11721 5.97604 1.94084 6.1401 1.76652C5.89811 1.86701 5.65611 1.9675 5.41412 2.06594H14.3432C14.7534 2.06594 15.1635 2.07209 15.5737 2.06594H15.5921C15.3502 1.96545 15.1082 1.86496 14.8662 1.76652L16.2197 3.20617C16.9395 3.97111 17.6593 4.734 18.3771 5.49895C18.5412 5.67326 18.7073 5.84963 18.8713 6.02395C19.0477 6.21262 19.341 6.32336 19.5973 6.32336C19.8496 6.32336 20.149 6.21262 20.3233 6.02395C20.5017 5.82912 20.635 5.57277 20.6227 5.29797C20.6104 5.02111 20.514 4.77707 20.3233 4.57199C19.9152 4.13928 19.5091 3.70656 19.101 3.27385C18.4058 2.53557 17.7127 1.79729 17.0174 1.06106C16.8103 0.839571 16.6011 0.620137 16.394 0.398653C16.1828 0.173067 15.9203 0.0213094 15.5901 0.0151571H5.72584C5.54127 0.0151571 5.31773 -0.00535076 5.14137 0.0520711C4.78863 0.166915 4.59381 0.41711 4.35387 0.671407C3.70787 1.35637 3.06393 2.04133 2.41793 2.72834C1.86832 3.31281 1.31871 3.89524 0.769101 4.47971C0.74039 4.51047 0.709629 4.54328 0.680918 4.57404C0.395859 4.87756 0.305625 5.30822 0.469687 5.69377C0.627597 6.06496 0.994687 6.32336 1.40689 6.32336H18.8549C19.0908 6.32336 19.3266 6.32541 19.5625 6.32336H19.5932C19.8557 6.32336 20.1326 6.20852 20.3192 6.02395C20.4976 5.84553 20.6309 5.55432 20.6186 5.29797C20.6063 5.03342 20.5202 4.75861 20.3192 4.57199C20.1203 4.38947 19.8742 4.27258 19.5953 4.27258Z"
        fill="white" />
    <path
        d="M11.7387 5.29593V10.9192C12.2534 10.6239 12.7682 10.3285 13.2809 10.0332C12.6041 9.67845 11.9274 9.32366 11.2486 8.96888C11.1624 8.92376 11.0763 8.87659 10.9881 8.83148C10.8281 8.7515 10.6538 8.68177 10.4693 8.68997C10.2806 8.69818 10.1206 8.74329 9.95042 8.82943C9.94221 8.83353 9.93401 8.83763 9.92581 8.84378C9.88069 8.86839 9.83352 8.89095 9.7884 8.91556C9.39465 9.12269 9.0009 9.32776 8.60715 9.53489C8.29133 9.70101 7.97551 9.86712 7.65764 10.0312C8.17239 10.3265 8.68713 10.6218 9.19983 10.9171V5.29388L8.17444 6.31927H12.762C13.0245 6.31927 13.3014 6.20443 13.488 6.01985C13.6664 5.84144 13.7997 5.55023 13.7874 5.29388C13.7751 5.02933 13.689 4.75452 13.488 4.5679C13.287 4.38333 13.0409 4.26849 12.762 4.26849H8.17444C7.62073 4.26849 7.14905 4.73812 7.14905 5.29388V10.9171C7.14905 11.2781 7.34592 11.6205 7.65764 11.8031C7.98577 11.9958 8.36311 11.9753 8.69329 11.8031C9.36184 11.4524 10.0324 11.1017 10.701 10.751C10.7974 10.7018 10.8917 10.6505 10.9881 10.6013H9.95247C10.621 10.952 11.2916 11.3027 11.9602 11.6534C12.0566 11.7026 12.1509 11.7538 12.2473 11.8031C12.5754 11.9753 12.9548 11.9958 13.2829 11.8031C13.5947 11.6205 13.7915 11.2801 13.7915 10.9171V5.29388C13.7915 5.03138 13.6767 4.75452 13.4921 4.5679C13.3137 4.38948 13.0225 4.25618 12.7661 4.26849C12.5016 4.28079 12.2268 4.36693 12.0402 4.5679C11.8556 4.77298 11.7387 5.01907 11.7387 5.29593Z"
        fill="white" />
</svg>
